# xmcd CD database file
#
# Track frame offsets:
#	150
#	26111
#	46555
#	71513
#	94465
#	117751
#	152569
#	169868
#	194568
#	212495
#	229833
#	247807
#	254802
#	276700
#
# Disc length: 3829 seconds
#
# Revision: 0
# Processed by: cddbd v1.5.2PL0 Copyright (c) Steve Scherf et al.
# Submitted via: CDex 1.51
#
DISCID=ca0ef30e
DTITLE=Tilmann Dehnhard - We Live There
DYEAR=2007
DGENRE=Jazz
TTITLE0=angelica
TTITLE1=roundabout
TTITLE2=here comes the sun
TTITLE3=we live there
TTITLE4=chelsea bridge - in a sentimental mood
TTITLE5=my favourite things
TTITLE6=chitlins con carne
TTITLE7=schlafe mein prinzchen
TTITLE8=like someone in love
TTITLE9=besame mucho
TTITLE10=blue monk
TTITLE11=foll on the hill
TTITLE12=over the rainbow
TTITLE13=wake up
EXTD=YEAR: 2007
EXTT0=
EXTT1=
EXTT2=
EXTT3=
EXTT4=
EXTT5=
EXTT6=
EXTT7=
EXTT8=
EXTT9=
EXTT10=
EXTT11=
EXTT12=
EXTT13=
PLAYORDER=
